<svg width="31" height="30" fill="none" xmlns="http://www.w3.org/2000/svg"><path fill-rule="evenodd" clip-rule="evenodd" d="M1.74.238c.219-.004.809.31 1.672.889a83.817 83.817 0 012.555 1.857c.68.53 1.656 1.29 2.163 1.72A61.83 61.83 0 019.8 6.138c.409.368.865.657 1.023.668.207-.004.29-.109.359-.408.044-.233.174-.481.295-.56.193-.12.278-.083.528.236.162.217.799 1.098 1.424 1.98.612.881 1.126 1.687 1.128 1.79.002.104-.763 1.01-1.708 1.996-.933 1-1.808 1.842-1.941 1.883-.134.054-.342.006-.453-.082-.111-.089-.915-.735-1.792-1.43a90.22 90.22 0 00-2.669-2.088c-.593-.455-1.088-.9-1.077-.977-.002-.09.166-.262.36-.368.204-.107.36-.291.358-.395-.002-.103-.426-.69-.949-1.302a56.861 56.861 0 01-1.607-2.016 33.797 33.797 0 01-1.44-2.173C1.2 2.187.834 1.456.831 1.263c-.016-.194.101-.48.268-.678.18-.21.42-.343.64-.347zm27.383.686c.012 0 .122.037.232.073.123.037.21.19.189.32-.01.13-1.08 1.623-2.368 3.3-1.299 1.666-3.113 3.87-4.033 4.895a108.36 108.36 0 01-3.891 4.013 212.566 212.566 0 00-4.132 4.146c-1.053 1.092-2.129 2.326-2.401 2.758-.261.431-1.432 1.745-2.63 2.969-1.173 1.21-2.24 2.211-2.35 2.213-.122.002-.22-.073-.222-.151.01-.09-.077-.245-.188-.32-.149-.14-.608.075-2.744 1.302-1.412.8-2.692 1.47-2.838 1.472a.49.49 0 01-.407-.251c-.063-.141-.127-.308-.128-.386-.001-.078.618-.877 1.394-1.796.764-.932 2.687-3.177 4.264-5.015a226.8 226.8 0 015.69-6.294c1.544-1.63 3.675-3.815 4.73-4.842a109.475 109.475 0 013.477-3.281c.864-.778 2.148-1.887 2.882-2.456 1.298-1.044 1.334-1.058 2.053-1.07.658.001.851-.08 2.057-.8.736-.439 1.34-.799 1.364-.8zM10.043 2.55c.316-.005.403.07.618.546.203.462.217.578.087.8a.594.594 0 01-.446.266c-.22.004-.356-.136-.57-.533-.227-.423-.267-.616-.173-.812.083-.17.252-.263.483-.267zm9.367 13.028c.231-.004.95.656 3.046 2.767 2.072 2.097 2.904 3.014 3.43 3.846.377.6.942 1.574 1.245 2.164.302.576 1.129 1.842 1.84 2.813.7.957 1.275 1.827 1.277 1.93.002.104-.092.3-.212.43a.683.683 0 01-.447.228c-.134.003-1.574-.839-3.2-1.858-1.615-1.02-3.031-1.887-3.142-1.924-.098-.05-.28-.034-.39.033-.12.067-.238.289-.27.509-.033.22-.152.43-.26.47-.146.041-.306-.033-.443-.225a55.702 55.702 0 01-1.202-1.828c-.539-.845-1.414-2.11-1.975-2.811a50.995 50.995 0 00-1.755-2.13c-.423-.483-.773-.969-.775-1.085a.95.95 0 01.091-.39c.047-.078.706-.775 1.46-1.538.982-1 1.462-1.397 1.682-1.4z" fill="#fff"/></svg>