<svg width="40" height="50" fill="none" xmlns="http://www.w3.org/2000/svg"><path fill-rule="evenodd" clip-rule="evenodd" d="M19.405.052c-.948.313-1.58 1.018-1.755 1.958l-.07.375.788-.002.787-.002.15-.326c.381-.825 1.502-.483 1.502.459 0 .292-.385.678-.677.678-.6 0-.925.404-.925 1.15v.434l-1.677.06c-1.805.064-2.779.21-4.434.662-1.762.482-1.83.543-2.796 2.536-.691 1.425-.815 2.01-.575 2.707l.151.436-.651.295a9.81 9.81 0 01-.69.294c-.02 0-.284.118-.586.262-.5.239-.61.357-1.24 1.336-.958 1.49-1.34 2.21-1.852 3.496-.557 1.397-.81 2.29-1.558 5.498C1.641 29.462.637 35.806.021 43.057c-.079.935.059 1.6.466 2.247l.292.463v1.757c0 1.875.06 2.174.467 2.361.334.153 5.142.153 5.476 0 .397-.182.466-.496.466-2.124v-1.52l.313-.36c.45-.514.583-.908.74-2.175.26-2.106.782-5.274.887-5.38.022-.023.022.245-.002.594a352.8 352.8 0 00-.18 3.281c-.123 2.362-.159 2.676-.34 2.931-.804 1.137-.757 2.834.1 3.617.447.41.9.552 2.366.743 2.924.38 4.372.452 9.034.448 4.617-.003 6.486-.104 9.289-.5 1.404-.198 1.936-.49 2.343-1.29.42-.825.302-2.029-.286-2.937-.247-.382-.26-.485-.389-3.026a326.112 326.112 0 00-.176-3.267c-.024-.35-.024-.616 0-.591.08.08.524 2.712.782 4.636.276 2.054.368 2.372.842 2.917l.313.359v1.52c0 1.628.07 1.941.467 2.124.334.153 5.142.153 5.476 0 .407-.187.466-.486.466-2.36v-1.758l.292-.463c.473-.75.55-1.271.417-2.803a144.15 144.15 0 00-1.872-13.788c-.494-2.645-1.767-8.298-2.237-9.929-.509-1.768-1.435-3.752-2.533-5.425-.637-.972-.762-1.106-1.246-1.336a6.73 6.73 0 00-.575-.257 9.79 9.79 0 01-.69-.294l-.65-.295.15-.436c.24-.697.116-1.282-.575-2.707-.966-1.992-1.034-2.054-2.795-2.536-1.614-.442-2.705-.606-4.501-.677l-1.645-.065.508-.318c1.93-1.207 1.165-4.256-1.112-4.43-.282-.02-.626-.001-.764.044zm-2.222 6.886c-.237.285-.546.653-.687.819l-.255.3-.508-.258c-.466-.239-1.034-.773-1.034-.974 0-.072.562-.191 1.602-.342.138-.02.49-.042.782-.05l.531-.013-.431.518zm6.829-.415c1 .129 1.302.199 1.302.3 0 .203-.567.737-1.035.976l-.508.259-.255-.301c-.14-.166-.45-.534-.686-.82l-.431-.517.43.003c.238.002.77.047 1.183.1zm-10.82.925c.113.121.205.26.205.307 0 .264 1.035 1.15 1.945 1.664 1.16.655 2.382 1.808 2.954 2.786.56.959 1.123 2.79.857 2.79-.029 0-.333-.222-.676-.492-1.614-1.272-3.961-2.595-5.831-3.286-1.06-.391-1.452-.695-1.452-1.122 0-.267 1.152-2.668 1.339-2.79.205-.135.453-.081.66.143zm7.781.033c.346.173.656.448.982.87l.476.618-.754.76-.753.759-.912.008-.912.01-.758-.77-.759-.768.476-.617c.837-1.087 1.87-1.395 2.914-.87zm6.506-.177c.187.123 1.34 2.524 1.34 2.79 0 .428-.393.732-1.452 1.123-1.87.691-4.218 2.014-5.832 3.286-.343.27-.647.491-.675.491-.136 0-.026-.668.23-1.396.673-1.915 1.856-3.234 3.93-4.382.593-.329 1.596-1.246 1.596-1.461 0-.048.091-.186.204-.307.207-.224.455-.278.66-.144zm-15.033 5.538c1.653.636 4.135 2.103 5.396 3.19l.388.334-.304 3.425c-.167 1.883-.286 3.443-.264 3.466.022.023.378.07.792.103.706.059.752.05.758-.142.003-.113.128-1.566.277-3.23l.271-3.027h.493l.27 3.026c.15 1.665.274 3.12.278 3.233.006.196.045.203.767.133.418-.04.774-.087.792-.105.017-.018-.106-1.574-.273-3.457l-.305-3.425.389-.337c1.306-1.133 4.142-2.758 5.926-3.396l.73-.26 1.103.466c.639.27 1.085.514 1.06.58-.223.586-.748 2.391-1.023 3.521-1.17 4.797-1.37 8.685-.902 17.48.148 2.777.254 5.223.236 5.434l-.032.383-.707-.558a8.054 8.054 0 01-2.796-4.336c-.306-1.207-.319-1.236-.613-1.371-.351-.162-9.942-.162-10.294 0-.294.135-.322.195-.574 1.247-.415 1.728-1.463 3.378-2.835 4.46l-.707.558-.03-.446c-.016-.245.086-2.603.226-5.24.359-6.744.334-10.111-.1-13.404a40.928 40.928 0 00-1.489-6.704c-.192-.609-.339-1.117-.326-1.13a30.26 30.26 0 011.071-.478c.634-.275 1.128-.432 1.25-.397.11.032.605.213 1.1.404zm-4.202 3.43c.938 3.429 1.253 5.854 1.32 10.171l.05 3.228-.56 2.068c-1.11 4.107-1.698 6.884-2.212 10.469-.181 1.26-.363 2.373-.404 2.472-.16.385-.568.475-2.159.475-1.697 0-2.033-.09-2.425-.643-.197-.277-.222-.43-.21-1.273.027-1.798.623-6.867 1.294-10.996.764-4.706 2.287-11.68 3.014-13.806.562-1.643 1.71-3.87 1.857-3.605.045.08.24.729.435 1.44zm24.842-.133c.466.916.976 2.202 1.234 3.11.346 1.218 1.387 5.735 1.856 8.053 1.068 5.273 2.151 13.15 2.192 15.937.012.843-.013.996-.21 1.273-.391.554-.728.643-2.425.643-1.68 0-2.002-.085-2.185-.575-.058-.155-.226-1.167-.373-2.25-.47-3.442-1.06-6.272-2.168-10.39l-.611-2.269.057-3.329c.032-1.83.105-3.714.164-4.186.275-2.212.801-4.769 1.369-6.654l.257-.853.246.4c.135.22.404.71.597 1.09zm-8.874 19.487c0 .495.823 2.377 1.428 3.262.758 1.11 2.233 2.405 3.443 3.022l.414.211.042 1.139c.023.626.003 1.165-.044 1.198-.09.063-1.988.306-4.031.518-1.615.167-9.301.167-10.915 0-2.044-.212-3.941-.455-4.031-.518-.047-.033-.067-.569-.045-1.191l.042-1.132.658-.364c1.214-.673 2.455-1.793 3.21-2.897.595-.873 1.417-2.757 1.417-3.248 0-.137 3.605 0 3.605 0s4.807-.137 4.807 0zM12.546 46.35c2.732.328 5.596.453 8.812.385 3.1-.066 4.317-.15 7.002-.485 1.629-.204 1.7-.205 1.826-.03.322.442.285 1.268-.065 1.457-.27.146-3.15.467-5.487.612-5.013.311-14.277-.144-14.859-.73-.223-.224-.235-.671-.033-1.16.148-.357.157-.361.626-.307l2.178.258zm-8.337.418l1.377.001v1.614H2.381v-.87c0-.851.005-.867.226-.807.124.033.845.06 1.602.062zm33.422.758v.857h-3.205v-1.609l1.478-.03a38.48 38.48 0 001.602-.053c.092-.017.125.204.125.835z" fill="#fff"/></svg>