<svg width="40" height="50" fill="none" xmlns="http://www.w3.org/2000/svg"><g clip-path="url(#clip0_296_28)"><path fill-rule="evenodd" clip-rule="evenodd" d="M17.65 2.01c.176-.94.807-1.645 1.755-1.958.138-.045.482-.065.764-.043 2.277.173 3.043 3.222 1.112 4.43l-.508.317 1.645.065c1.796.071 2.887.235 4.5.677 1.762.482 1.83.544 2.797 2.536.69 1.425.815 2.01.574 2.707l-.15.436.65.295c.359.162.669.294.69.294.02 0 .28.116.575.257.484.23.609.364 1.246 1.336 1.098 1.673 2.024 3.657 2.533 5.425.47 1.63 1.743 7.284 2.237 9.929A144.15 144.15 0 0139.942 42.5c.133 1.532.056 2.052-.417 2.803l-.292.463v1.757c0 1.875-.059 2.174-.466 2.361-.334.153-5.142.153-5.476 0-.398-.182-.467-.496-.467-2.124v-1.52l-.313-.36c-.474-.544-.566-.862-.842-2.916-.258-1.924-.701-4.556-.782-4.636-.024-.025-.024.242 0 .591.024.35.104 1.82.176 3.267.128 2.541.142 2.644.39 3.026.587.908.704 2.112.285 2.936-.407.8-.94 1.093-2.343 1.292-2.803.395-4.672.495-9.289.5-4.662.003-6.11-.069-9.034-.45-1.467-.19-1.92-.332-2.366-.742-.857-.784-.904-2.48-.1-3.617.181-.255.217-.57.34-2.93.075-1.455.156-2.932.18-3.282.024-.35.024-.617.002-.594-.105.106-.628 3.274-.888 5.38-.156 1.267-.29 1.66-.739 2.176l-.313.359v1.52c0 1.628-.069 1.941-.466 2.124-.334.153-5.142.153-5.476 0-.408-.187-.467-.486-.467-2.36v-1.758l-.292-.463c-.407-.647-.545-1.312-.466-2.247.616-7.25 1.62-13.595 3.276-20.7.748-3.206 1.001-4.1 1.558-5.497.512-1.285.894-2.005 1.852-3.495.63-.98.74-1.098 1.24-1.337.302-.144.566-.262.587-.262.02 0 .33-.132.689-.294l.651-.295-.15-.436c-.241-.697-.117-1.282.574-2.707.966-1.993 1.034-2.054 2.796-2.536 1.655-.453 2.629-.598 4.434-.662l1.677-.06v-.434c0-.746.325-1.15.925-1.15.292 0 .677-.386.677-.678 0-.942-1.12-1.284-1.502-.459l-.15.326-.787.002-.787.002.07-.375zm-1.154 5.747c.14-.166.45-.534.687-.82l.431-.517-.531.014a9.05 9.05 0 00-.782.05c-1.04.15-1.602.27-1.602.34 0 .202.568.736 1.034.975l.508.259.255-.301zm8.818-.933c0-.102-.303-.172-1.302-.301a12.677 12.677 0 00-1.182-.1l-.431-.003.43.518.687.819.256.3.507-.258c.468-.24 1.035-.773 1.035-.975zm-11.917.93c0-.047-.092-.185-.204-.306-.207-.224-.455-.278-.66-.144-.187.123-1.34 2.524-1.34 2.79 0 .428.394.732 1.453 1.123 1.87.691 4.217 2.014 5.831 3.286.343.27.647.491.676.491.266 0-.297-1.83-.857-2.789-.572-.978-1.794-2.131-2.954-2.786-.91-.514-1.945-1.4-1.945-1.664zm8.558.598c-.326-.423-.636-.698-.982-.871-1.045-.525-2.077-.217-2.915.87l-.475.617.759.769.759.768.911-.009.912-.008.753-.76.754-.759-.476-.617zm6.864 1.743c0-.267-1.153-2.668-1.34-2.79-.204-.135-.452-.081-.66.143-.112.121-.203.26-.203.307 0 .215-1.003 1.132-1.597 1.461-2.073 1.148-3.256 2.468-3.928 4.382-.257.728-.367 1.396-.232 1.396.03 0 .333-.221.676-.491 1.614-1.272 3.962-2.595 5.832-3.286 1.059-.391 1.452-.695 1.452-1.122zM17.842 16.03c-1.261-1.086-3.743-2.553-5.396-3.189a26.21 26.21 0 00-1.102-.404c-.121-.035-.615.122-1.249.397a30.26 30.26 0 00-1.071.478c-.013.013.134.521.326 1.13a40.928 40.928 0 011.49 6.704c.433 3.293.458 6.66.099 13.405-.14 2.636-.242 4.994-.226 5.24l-.24 3.475c-.022.622-.002 1.158.045 1.191.09.063 1.987.306 4.03.518 1.615.167 9.301.167 10.916 0 2.043-.212 3.94-.455 4.03-.518.048-.033.068-.572.045-1.198l-.042-1.139-.196-2.267c.018-.21-.088-2.657-.236-5.434-.468-8.795-.268-12.683.901-17.48.276-1.13.8-2.935 1.024-3.521.025-.066-.421-.31-1.06-.58l-1.103-.466-.73.26c-1.784.638-4.62 2.263-5.926 3.396l-.389.337-1.53.595h-.492l-1.53-.595-.389-.335zM9.563 26.443c-.067-4.317-.382-6.742-1.32-10.17-.194-.712-.39-1.36-.435-1.44-.147-.266-1.295 1.961-1.857 3.604-.727 2.126-2.25 9.1-3.014 13.806-.671 4.129-1.267 9.198-1.294 10.995-.012.843.013.997.21 1.274.392.554.728.643 2.425.643 1.591 0 1.998-.09 2.159-.475.04-.1.223-1.212.404-2.472.514-3.585 1.102-6.362 2.213-10.469l.559-2.068-.05-3.228zM34.32 19.25c-.258-.91-.768-2.195-1.234-3.111a19.61 19.61 0 00-.597-1.09l-.246-.4-.257.853c-.568 1.885-1.094 4.442-1.37 6.654-.058.472-.131 2.356-.163 4.186l-.057 3.33.61 2.269c1.11 4.117 1.7 6.947 2.169 10.39.147 1.081.315 2.094.373 2.249.183.49.505.575 2.185.575 1.697 0 2.034-.09 2.426-.643.196-.277.221-.43.209-1.273-.04-2.787-1.124-10.664-2.192-15.937-.469-2.318-1.51-6.835-1.856-8.052zM21.358 46.735c-3.216.068-6.08-.057-8.812-.385l-2.178-.258c-.47-.054-.478-.05-.626.308-.202.488-.19.935.033 1.16.582.585 9.846 1.04 14.86.729 2.337-.145 5.215-.466 5.486-.612.35-.189.387-1.015.066-1.458-.127-.174-.198-.173-1.827.03-2.685.336-3.901.42-7.002.486zm-15.772.034l-1.377-.001c-.757-.001-1.478-.03-1.602-.063-.221-.06-.226-.043-.226.809v.869h3.205v-1.614zm32.045 1.614v-.857c0-.631-.033-.852-.125-.836-.069.013-.79.037-1.602.054l-1.478.03v1.609h3.205z" fill="#fff"/></g><defs><clipPath id="clip0_296_28"><path fill="#fff" d="M0 0h40v50H0z"/></clipPath></defs></svg>