<svg width="44" height="45" fill="none" xmlns="http://www.w3.org/2000/svg"><path d="M11.722.901c-3.115.31-5.628 1.427-7.627 3.377C2.24 6.103 1.096 8.441.679 11.256c-.136.912-.146 2.406-.117 11.77.03 11.772-.01 10.957.621 12.956 1.32 4.192 4.717 7.152 9.297 8.074.815.165 1.63.175 11.84.175h10.965l1.019-.224c4.988-1.106 8.355-4.454 9.364-9.316.31-1.504.36-3.328.32-13.071-.048-10.452-.029-10.2-.61-12.228-.311-1.096-1.156-2.804-1.796-3.658-1.533-2.028-3.455-3.406-5.852-4.202-2.106-.689-1.688-.67-13.023-.689-5.6-.01-10.548.02-10.985.058zm21.485 4.125c2.368.388 4.26 1.562 5.434 3.377.563.854.864 1.562 1.175 2.688l.262.921.029 9.947c.029 10.335.01 11.024-.369 12.402-.67 2.378-2.552 4.435-4.803 5.25-1.815.66-1.233.621-11.937.66-6.472.03-10.063.01-10.79-.058-3.785-.369-6.464-2.475-7.298-5.745-.388-1.524-.408-2.251-.369-12.557.039-10.626.02-10.335.534-11.79C6.094 7.198 8.5 5.364 11.838 4.947c.166-.02 4.833-.049 10.384-.049 8.52-.02 10.228 0 10.985.127z" fill="#fff"/><path d="M33.071 8.597c-1.067.408-1.678 1.28-1.678 2.407 0 2.232 2.64 3.357 4.25 1.805 1.233-1.175.922-3.29-.602-4.067-.475-.242-1.513-.32-1.97-.145zM20.35 11.42c-2.378.457-4.387 1.505-6.036 3.164a11.17 11.17 0 000 15.818c4.153 4.163 10.742 4.396 15.235.563 1.767-1.514 3.009-3.562 3.62-5.978.175-.718.213-1.096.204-2.542 0-1.505-.03-1.805-.253-2.63-1.116-4.144-4.114-7.133-8.219-8.21-1.165-.3-3.426-.398-4.551-.184zm3.804 4.154c1.213.33 2.135.893 3.115 1.873 1 .99 1.543 1.902 1.902 3.212.271.951.29 2.475.058 3.455-.592 2.426-2.377 4.367-4.774 5.182-1.03.35-2.679.436-3.766.194-1.446-.32-3.047-1.3-3.959-2.426-.64-.786-1.29-2.106-1.494-3.018-.253-1.107-.165-2.747.184-3.785.873-2.581 3.134-4.493 5.784-4.89.825-.127 2.086-.04 2.95.203z" fill="#fff"/></svg>