<svg width="35" height="50" fill="none" xmlns="http://www.w3.org/2000/svg"><path fill-rule="evenodd" clip-rule="evenodd" d="M6.188 3.125V6.25H4.06v2.051H0V50h35V8.3h-4.06V6.25h-2.128V0h-2.03v6.25H24.75v2.051h-14.5V6.25H8.218V0h-2.03v3.125zm2.03 6.25v1.074h-2.03V8.301h2.03v1.074zm20.594 0v1.074h-2.03V8.301h2.03v1.074zm-24.751 2.1V12.5h6.188v-2.051H24.75V12.5h6.188v-2.051h2.032v37.5H2.03v-37.5h2.031v1.026zm13.727 11.343c-1.237 2.194-2.302 4.046-2.365 4.116-.092.101-.358-.282-1.304-1.88-.653-1.104-1.22-2.007-1.258-2.007-.068 0-6.093 10.083-6.093 10.197 0 .031 4.83.057 10.732.057 5.903 0 10.732-.028 10.732-.062 0-.091-7.937-14.127-8.075-14.278-.096-.106-.547.628-2.369 3.857zm4.655 4.302l2.307 4.081-2.375.026c-1.306.015-3.41.015-4.675 0l-2.3-.026 2.33-4.119c1.282-2.265 2.348-4.101 2.368-4.08.02.02 1.076 1.874 2.345 4.118zm-8.884.992l.629 1.06-.588 1.04-.588 1.038h-1.341c-.738 0-1.327-.037-1.31-.083.105-.27 2.439-4.116 2.498-4.116.04 0 .354.477.7 1.06zm-4.712 9.48c-.376.156-.58.492-.58.952 0 .37.048.48.315.722l.316.285h17.204l.316-.285c.269-.243.315-.35.315-.73 0-.357-.053-.5-.268-.716l-.268-.271-8.578-.02c-4.719-.01-8.666.018-8.772.063zm4.023 4.244c-.55.308-.652 1.05-.212 1.546l.282.32h9.12l.282-.32c.447-.505.321-1.305-.247-1.566-.384-.177-8.907-.159-9.225.02z" fill="#fff"/></svg>