<svg width="50" height="50" fill="none" xmlns="http://www.w3.org/2000/svg"><g clip-path="url(#clip0_301_12)" stroke="#fff" stroke-width="2"><path d="M5.675 38.67a23.242 23.242 0 1138.65-25.825A23.242 23.242 0 015.676 38.67z"/><path d="M27.295 13.636l7.068 7.273m-11.658-7.273l-7.068 7.273m-3.516 4.689v-4.545a.166.166 0 01.174-.16h25.41a.166.166 0 01.174.16v4.545a.167.167 0 01-.175.16H12.295a.166.166 0 01-.158-.096.166.166 0 01-.016-.064v0zm23.416.159l-1.431 7.425" stroke-linecap="round" stroke-linejoin="round"/><path d="M26.175 37.879h-8.41a1.182 1.182 0 01-1.15-.978l-2.152-11.144m15.84 12.121h5.303" stroke-linecap="round" stroke-linejoin="round"/></g><defs><clipPath id="clip0_301_12"><path fill="#fff" d="M0 0h50v50H0z"/></clipPath></defs></svg>