<svg version="1.0" xmlns="http://www.w3.org/2000/svg" width="933.333" height="933.333" viewBox="0 0 700 700"><path d="M0 350v350h700V0H0v350zm296.3-241.1c6.7 3.3 15.1 7.1 18.7 8.4 9.6 3.6 20.2 9.1 23.8 12.5 3.6 3.4 3.8 5 1.8 14.9-1.7 8.1-4.2 25.9-5.2 36.2l-.6 7.3 5.3-.7c7.6-1 12.6-2.4 36.4-10.8 23.4-8.2 29.1-10.6 39.1-16.6 3.8-2.3 8.7-4.6 10.9-5.2 2.2-.6 5.7-2.4 7.8-4 2-1.7 6.3-4.2 9.5-5.7 10.6-4.9 29.3-3.1 39.5 3.9 4.8 3.3 9.6 8 11.8 11.6l2 3.1-2.4 3.6c-5.5 8-11.5 43.1-15.2 88.1-1.8 21.9-2.5 26.9-6.4 42-4.4 17.1-4.4 17.3-1.7 19.9 1.4 1.2 7 4.6 12.6 7.5 13.5 7 16.3 9.7 21.6 20.4l4.5 8.9-.3 36.1c-.3 35.4-.4 36.3-2.6 41-1.5 3.1-2.7 8.1-3.3 14.5-.9 8.4-1.6 10.8-5.3 18.2l-4.4 8.5-.6 14c-.9 19.6-2.1 26.1-7.6 41-5.4 14.6-7.8 23-8.8 31.2-.7 5.7-1.5 6.7-6.2 7.7-1.4.3-5 2.2-8 4.1-4.9 3.2-6 3.6-10 3-12.2-1.5-17.4-1.7-22.7-.6-4.3.9-7.5 1-12.3.2-27.2-4.3-110.8-8-120.5-5.3-2.5.7-3.1 1.4-3.3 4.3-.4 4.8-2.4 5.9-10.9 5.9-5.6 0-8.2.5-11.5 2.2-4.8 2.6-12.1 2.8-37.9 1.2-18.5-1.2-18.1-.8-22.5-21.8-1.7-8-2.6-15-2.5-20.8 0-8.2-.1-8.7-2.2-9-2-.3-2.2-.8-2-6.6.1-6 2.2-17 4.4-24 .7-2 2.1-3.7 3.5-4.2 3.2-1.3 3-2.8-.3-3.6-4-1-5.3-2.3-5.3-5.5 0-4.6 1.8-5.7 14.6-8.9 4.4-1.1 6.4-3.8 6.4-9 0-6.5-2.3-7.4-9.9-4-2.4 1.1-4.5 2-4.7 2-.6 0-.5-6.7.2-8.4.3-.8 2.1-2 4-2.6 3-1 3.5-1.6 3.2-3.8-.4-3.6-2.9-3.9-6.6-.7-1.6 1.4-3.5 2.5-4 2.5-3.4 0-1.8-11.8 2.9-20.7 3.5-6.6 3.9-12.2.9-13-1.7-.5-2-1.4-2-6.5 0-7-1.3-6.9-3 .3-1.6 6.6-3 4.7-3-4.3 0-8.5 1.7-16.8 3.5-16.8 1.7 0 7.9-7.2 10-11.7 2-4.2 1.4-6.3-1.9-6.3s-5-3.2-4.2-8.1c.3-2.2 2.2-9.6 4.1-16.7 8-29.3 12.4-56.7 13.2-81.8.6-19.1.7-18.5-4-21.7-1.7-1.2-1.8-2-.7-11.7 1.7-15.9 2.6-19.5 8-31.2 6.3-13.8 13.3-33.3 15.4-42.8.9-4.1 3-11.6 4.7-16.6 1.6-5 4.5-14.4 6.3-21 4.6-16.1 5.1-17.3 8.8-19 6.2-2.8 13.5-1.3 27.1 5.5z"/><path d="M419.5 210.5c-3.8 1.8-15.3 6.7-25.5 10.8-23.3 9.4-30.9 13.2-43.8 22-12.8 8.7-20 15.2-25.7 23.1-6.3 8.9-11.5 20.2-11.5 25.1 0 2.8.3 3.6.9 2.6.8-1.2 1.1-.9 1.7 1.3 1 4.3-.4 14.6-2.6 18.8-2.5 4.8-2.5 4.7.5 5.8l2.5 1v16.8c0 9.3.2 17.1.5 17.4.8.7 11.6-1.9 17.4-4.2 11.4-4.5 42.6-20.2 51.4-25.9 5.3-3.4 13.3-7.8 17.9-9.7 4.6-2 9.3-4.5 10.5-5.6 3.3-3.1 4.9-9.2 7.7-29.3 1.4-9.9 4.5-26.1 7-36 6.7-27.8 6.9-36.7.6-37.2-1.4-.1-5.6 1.3-9.5 3.2zm-13 164.7c-13.5 2.5-32.1 9.6-53.1 20.1-14 7.1-42.1 23-44.2 25.1-.7.7-2 4.1-2.8 7.5-.8 3.5-2.5 8.1-3.8 10.4-1.3 2.3-2.9 6.5-3.5 9.4-1.5 7.2-3.8 32.1-4.6 48.3-.8 16.9-.2 18.4 7 18.6 2.8.1 6.2.6 7.6 1.2 6.1 2.4 36.4 5.5 53.9 5.6 31 0 61.6-6.3 66.4-13.7.9-1.3 2.7-9.3 4.1-18.2 1.4-8.7 3.2-17.2 4.2-18.9 1.4-2.6 1.8-7.7 2.4-30.6.4-15.1 1.2-31.8 1.8-37 1.8-15.5 1.8-23.7.1-25.4-3.2-3.1-24.1-4.6-35.5-2.4z"/></svg>